<svg width="898" height="557" viewBox="0 0 898 557" fill="none" xmlns="http://www.w3.org/2000/svg">
<g id="fix 1" clip-path="url(#clip0_1_2)">
<path id="Vector" d="M656.713 116.141H222.703C220.565 116.142 218.514 116.99 217.001 118.502C215.487 120.013 214.636 122.063 214.633 124.201V329.071C214.636 331.211 215.487 333.262 217 334.775C218.512 336.288 220.564 337.139 222.703 337.141H656.713C658.851 337.137 660.9 336.285 662.411 334.772C663.922 333.26 664.771 331.209 664.773 329.071V124.201C664.771 122.064 663.921 120.016 662.41 118.505C660.899 116.994 658.85 116.144 656.713 116.141V116.141Z" fill="#B1ABFC"/>
<g id="req">
<g id="plus2">
<path id="Vector_2" d="M766.638 201.276C761.172 201.276 755.828 199.655 751.283 196.618C746.738 193.581 743.196 189.265 741.104 184.215C739.012 179.164 738.465 173.607 739.531 168.246C740.597 162.885 743.23 157.96 747.095 154.095C750.96 150.23 755.885 147.597 761.246 146.531C766.607 145.465 772.164 146.012 777.215 148.104C782.265 150.196 786.581 153.738 789.618 158.283C792.655 162.828 794.276 168.172 794.276 173.638C794.276 180.968 791.364 187.998 786.181 193.181C780.998 198.364 773.968 201.276 766.638 201.276V201.276Z" fill="#6C63FF"/>
<path id="Vector_3" d="M777.543 170.912H769.364V162.733C769.364 162.01 769.077 161.316 768.566 160.805C768.055 160.294 767.361 160.006 766.638 160.006C765.915 160.006 765.221 160.294 764.71 160.805C764.199 161.316 763.912 162.01 763.912 162.733V170.912H755.733C755.374 170.911 755.019 170.981 754.688 171.118C754.356 171.255 754.055 171.455 753.801 171.708C753.548 171.962 753.346 172.262 753.209 172.594C753.072 172.925 753.001 173.28 753.001 173.638C753.001 173.997 753.072 174.352 753.209 174.683C753.346 175.014 753.548 175.314 753.801 175.568C754.055 175.821 754.356 176.022 754.688 176.158C755.019 176.295 755.374 176.365 755.733 176.364H763.912V184.543C763.912 185.266 764.199 185.96 764.71 186.471C765.221 186.983 765.915 187.27 766.638 187.27C767.361 187.27 768.055 186.983 768.566 186.471C769.077 185.96 769.364 185.266 769.364 184.543V176.364H777.543C778.266 176.364 778.96 176.077 779.471 175.566C779.982 175.055 780.269 174.361 780.269 173.638C780.269 172.915 779.982 172.222 779.471 171.71C778.96 171.199 778.266 170.912 777.543 170.912V170.912Z" fill="white"/>
</g>
<path id="Vector_4" d="M436.979 174C433.007 174.002 429.2 174.852 426.392 176.363C423.583 177.874 422.004 179.923 422 182.06V239.93C422.003 242.068 423.582 244.118 426.39 245.631C429.197 247.144 433.005 247.996 436.979 248H665V174H436.979Z" fill="#6C63FF"/>
<path id="req_2" opacity="0.5" d="M759.076 248H430.066C427.928 247.998 425.877 247.147 424.365 245.635C422.853 244.123 422.002 242.072 422 239.934V182.066C422.002 179.928 422.853 177.877 424.365 176.365C425.878 174.853 427.928 174.002 430.066 174H759.076C761.215 174.002 763.265 174.853 764.778 176.365C766.29 177.877 767.14 179.928 767.143 182.066V239.934C767.14 242.072 766.29 244.123 764.778 245.635C763.265 247.147 761.215 247.998 759.076 248Z" fill="#6C63FF"/>
<path id="Vector_5" d="M474.56 227.789C481.789 227.789 487.649 221.928 487.649 214.699C487.649 207.47 481.789 201.61 474.56 201.61C467.331 201.61 461.47 207.47 461.47 214.699C461.47 221.928 467.331 227.789 474.56 227.789Z" fill="white"/>
<path id="Vector_6" d="M748.883 210.896H512.368C511.335 210.896 510.343 210.486 509.612 209.755C508.881 209.024 508.471 208.032 508.471 206.998C508.471 205.965 508.881 204.973 509.612 204.242C510.343 203.511 511.335 203.101 512.368 203.101H748.883C749.916 203.101 750.908 203.511 751.639 204.242C752.37 204.973 752.78 205.965 752.78 206.998C752.78 208.032 752.37 209.024 751.639 209.755C750.908 210.486 749.916 210.896 748.883 210.896Z" fill="white"/>
<path id="Vector_7" d="M659.052 226.298H512.368C511.335 226.298 510.343 225.887 509.612 225.156C508.881 224.425 508.47 223.434 508.47 222.4C508.47 221.366 508.881 220.375 509.612 219.644C510.343 218.913 511.335 218.502 512.368 218.502H659.052C660.086 218.502 661.077 218.913 661.808 219.644C662.539 220.375 662.95 221.366 662.95 222.4C662.95 223.434 662.539 224.425 661.808 225.156C661.077 225.887 660.086 226.298 659.052 226.298V226.298Z" fill="white"/>
</g>
<path id="Vector_8" d="M151.406 545.537L162.734 545.536L168.123 501.843H151.404L151.406 545.537Z" fill="#FFB6B6"/>
<path id="Vector_9" d="M148.517 541.838L151.705 541.838L164.154 536.776L170.826 541.837H170.826C174.597 541.837 178.213 543.335 180.879 546.001C183.545 548.667 185.043 552.283 185.043 556.054V556.516L148.517 556.517L148.517 541.838Z" fill="#2F2E41"/>
<path id="Vector_10" d="M49.051 530.809L59.19 535.862L83.504 499.161L68.541 491.703L49.051 530.809Z" fill="#FFB6B6"/>
<path id="Vector_11" d="M48.115 526.21L50.9687 527.632L64.3681 528.654L68.0814 536.161L68.0822 536.161C71.4566 537.843 74.0246 540.797 75.2214 544.372C76.4183 547.948 76.1458 551.852 74.4641 555.227L74.258 555.641L41.5673 539.348L48.115 526.21Z" fill="#2F2E41"/>
<path id="Vector_12" d="M156.425 347.096L84.3992 348.975L85.6518 384.049C85.6518 384.049 84.3992 393.444 86.9044 395.949C89.4097 398.454 90.6623 398.454 89.4097 402.838C88.157 407.223 84.9187 449.112 84.9187 449.112C84.9187 449.112 55.3572 501.382 56.6098 502.634C57.8624 503.887 59.115 502.634 57.8624 505.766C56.6098 508.898 55.3572 507.645 56.6098 508.898C57.7194 510.094 58.7647 511.348 59.7414 512.655H80.1569C80.1569 512.655 81.2986 506.392 81.2986 505.766C81.2986 505.14 82.5512 501.382 82.5512 500.756C82.5512 500.129 118.22 462.338 118.22 462.338L125.736 399.707L143.899 461.085C143.899 461.085 143.899 514.948 145.152 516.201C146.404 517.454 146.404 516.827 145.778 519.333C145.152 521.838 142.646 521.211 144.525 523.09C146.404 524.969 147.03 521.838 146.404 524.969L145.778 528.101L169.84 528.37C169.84 528.37 172.346 523.09 171.093 521.211C169.84 519.333 169.915 519.845 171.444 516.771C172.972 513.696 173.598 513.069 172.972 512.443C172.346 511.817 172.346 508.485 172.346 508.485C172.346 508.485 163.315 385.302 163.315 383.423C163.267 382.456 163.446 381.491 163.835 380.605V378.055L161.436 369.017L156.425 347.096Z" fill="#2F2E41"/>
<g id="sq2">
<g id="plus1">
<path id="Vector_13" d="M340.68 429.348C335.214 429.348 329.871 427.727 325.326 424.69C320.781 421.653 317.238 417.337 315.146 412.286C313.054 407.236 312.507 401.679 313.573 396.318C314.64 390.957 317.272 386.032 321.137 382.167C325.003 378.302 329.927 375.669 335.288 374.603C340.65 373.536 346.207 374.084 351.257 376.176C356.307 378.267 360.624 381.81 363.661 386.355C366.697 390.9 368.318 396.244 368.318 401.71C368.318 409.04 365.407 416.07 360.223 421.253C355.04 426.436 348.01 429.348 340.68 429.348V429.348Z" fill="#6C63FF"/>
<path id="Vector_14" d="M351.586 398.984H343.407V390.805C343.407 390.081 343.12 389.388 342.608 388.877C342.097 388.365 341.403 388.078 340.68 388.078C339.957 388.078 339.264 388.365 338.753 388.877C338.241 389.388 337.954 390.081 337.954 390.805V398.984H329.775C329.417 398.983 329.062 399.053 328.73 399.19C328.399 399.326 328.098 399.527 327.844 399.78C327.59 400.033 327.389 400.334 327.252 400.665C327.114 400.996 327.044 401.351 327.044 401.71C327.044 402.068 327.114 402.423 327.252 402.754C327.389 403.085 327.59 403.386 327.844 403.639C328.098 403.893 328.399 404.093 328.73 404.23C329.062 404.367 329.417 404.437 329.775 404.436H337.954V412.615C337.954 413.338 338.241 414.032 338.753 414.543C339.264 415.054 339.957 415.341 340.68 415.341C341.403 415.341 342.097 415.054 342.608 414.543C343.12 414.032 343.407 413.338 343.407 412.615V404.436H351.586C352.309 404.436 353.002 404.149 353.513 403.638C354.025 403.126 354.312 402.433 354.312 401.71C354.312 400.987 354.025 400.293 353.513 399.782C353.002 399.271 352.309 398.984 351.586 398.984Z" fill="white"/>
</g>
<path id="Vector_15" d="M447.883 289.211H342.873C340.734 289.214 338.682 290.065 337.17 291.578C335.657 293.091 334.806 295.142 334.803 297.281V337.141H455.943V297.281C455.942 295.143 455.092 293.093 453.581 291.581C452.07 290.068 450.021 289.216 447.883 289.211V289.211Z" fill="#6C63FF"/>
<path id="sq2_2" opacity="0.5" d="M447.88 401.211H342.87C340.731 401.209 338.681 400.358 337.169 398.846C335.656 397.334 334.806 395.284 334.803 393.145V297.278C334.806 295.139 335.656 293.089 337.169 291.577C338.681 290.064 340.731 289.214 342.87 289.211H447.88C450.018 289.214 452.069 290.064 453.581 291.577C455.093 293.089 455.944 295.139 455.946 297.278V393.145C455.944 395.284 455.093 397.334 453.581 398.846C452.069 400.358 450.018 401.209 447.88 401.211Z" fill="#6C63FF"/>
<path id="Vector_16" d="M373.808 334.652C381.037 334.652 386.898 328.792 386.898 321.563C386.898 314.334 381.037 308.473 373.808 308.473C366.579 308.473 360.719 314.334 360.719 321.563C360.719 328.792 366.579 334.652 373.808 334.652Z" fill="white"/>
<path id="Vector_17" d="M426.131 354.547H364.617C363.583 354.547 362.592 354.137 361.861 353.406C361.13 352.675 360.719 351.683 360.719 350.649C360.719 349.616 361.13 348.624 361.861 347.893C362.592 347.162 363.583 346.752 364.617 346.752H426.131C427.165 346.752 428.156 347.162 428.887 347.893C429.618 348.624 430.029 349.616 430.029 350.649C430.029 351.683 429.618 352.675 428.887 353.406C428.156 354.137 427.165 354.547 426.131 354.547Z" fill="white"/>
<path id="Vector_18" d="M394.301 369.949H364.617C363.583 369.949 362.592 369.539 361.861 368.807C361.13 368.076 360.719 367.085 360.719 366.051C360.719 365.017 361.13 364.026 361.861 363.295C362.592 362.564 363.583 362.153 364.617 362.153H394.301C395.334 362.153 396.326 362.564 397.057 363.295C397.788 364.026 398.199 365.017 398.199 366.051C398.199 367.085 397.788 368.076 397.057 368.807C396.326 369.539 395.334 369.949 394.301 369.949V369.949Z" fill="white"/>
</g>
<g id="sq1">
<path id="Vector_19" d="M327.887 228.266H222.877C220.738 228.264 218.688 227.413 217.176 225.901C215.663 224.389 214.813 222.339 214.81 220.2V124.332C214.813 122.194 215.664 120.144 217.176 118.632C218.688 117.119 220.738 116.269 222.877 116.266H327.887C330.025 116.269 332.076 117.119 333.588 118.632C335.1 120.144 335.951 122.194 335.953 124.332V220.2C335.951 222.339 335.1 224.389 333.588 225.901C332.076 227.413 330.026 228.264 327.887 228.266V228.266Z" fill="#6C63FF"/>
<path id="Vector_20" d="M253.816 169.707C261.045 169.707 266.906 163.847 266.906 156.618C266.906 149.389 261.045 143.529 253.816 143.529C246.587 143.529 240.727 149.389 240.727 156.618C240.727 163.847 246.587 169.707 253.816 169.707Z" fill="#6C63FF"/>
<path id="Vector_21" d="M306.139 185.602H244.625C243.591 185.602 242.6 185.192 241.869 184.461C241.138 183.73 240.727 182.738 240.727 181.705C240.727 180.671 241.138 179.679 241.869 178.949C242.6 178.218 243.591 177.807 244.625 177.807H306.139C307.173 177.807 308.164 178.218 308.895 178.949C309.626 179.679 310.037 180.671 310.037 181.705C310.037 182.738 309.626 183.73 308.895 184.461C308.164 185.192 307.173 185.602 306.139 185.602V185.602Z" fill="#6C63FF"/>
<path id="Vector_22" d="M274.308 201.004H244.625C243.591 201.004 242.6 200.594 241.869 199.863C241.138 199.132 240.727 198.14 240.727 197.106C240.727 196.073 241.138 195.081 241.869 194.35C242.6 193.619 243.591 193.208 244.625 193.208H274.308C275.342 193.208 276.334 193.619 277.065 194.35C277.796 195.081 278.206 196.073 278.206 197.106C278.206 198.14 277.796 199.132 277.065 199.863C276.334 200.594 275.342 201.004 274.308 201.004V201.004Z" fill="#6C63FF"/>
<path id="Vector_23" opacity="0.5" d="M328.077 228H223.066C220.928 227.998 218.877 227.147 217.365 225.635C215.853 224.122 215.002 222.072 215 219.934V124.066C215.002 121.927 215.853 119.877 217.365 118.365C218.878 116.853 220.928 116.002 223.066 116H328.077C330.215 116.002 332.265 116.853 333.778 118.365C335.29 119.877 336.14 121.927 336.143 124.066V219.934C336.14 222.072 335.29 224.122 333.778 225.635C332.265 227.147 330.215 227.998 328.077 228V228Z" fill="#6C63FF"/>
<path id="Vector_24" d="M274.308 201.004H244.625C243.591 201.004 242.6 200.594 241.869 199.863C241.138 199.132 240.727 198.14 240.727 197.106C240.727 196.073 241.138 195.081 241.869 194.35C242.6 193.619 243.591 193.208 244.625 193.208H274.308C275.342 193.208 276.334 193.619 277.065 194.35C277.796 195.081 278.206 196.073 278.206 197.106C278.206 198.14 277.796 199.132 277.065 199.863C276.334 200.594 275.342 201.004 274.308 201.004V201.004Z" fill="white"/>
<path id="Vector_25" d="M306.139 185.602H244.625C243.591 185.602 242.6 185.192 241.869 184.461C241.138 183.73 240.727 182.738 240.727 181.705C240.727 180.671 241.138 179.679 241.869 178.949C242.6 178.218 243.591 177.807 244.625 177.807H306.139C307.173 177.807 308.164 178.218 308.895 178.949C309.626 179.679 310.037 180.671 310.037 181.705C310.037 182.738 309.626 183.73 308.895 184.461C308.164 185.192 307.173 185.602 306.139 185.602V185.602Z" fill="white"/>
<path id="Vector_26" d="M253.816 169.707C261.045 169.707 266.906 163.847 266.906 156.618C266.906 149.389 261.045 143.529 253.816 143.529C246.587 143.529 240.727 149.389 240.727 156.618C240.727 163.847 246.587 169.707 253.816 169.707Z" fill="white"/>
</g>
<path id="Vector_27" d="M282.67 555.785C282.671 555.942 282.64 556.097 282.58 556.241C282.521 556.386 282.433 556.517 282.323 556.628C282.212 556.738 282.081 556.826 281.936 556.886C281.791 556.945 281.636 556.976 281.48 556.975H1.19C0.874395 556.975 0.57171 556.85 0.348541 556.627C0.125373 556.404 0 556.101 0 555.785C0 555.47 0.125373 555.167 0.348541 554.944C0.57171 554.721 0.874395 554.595 1.19 554.595H281.48C281.636 554.595 281.791 554.625 281.936 554.685C282.081 554.745 282.212 554.832 282.323 554.943C282.433 555.053 282.521 555.185 282.58 555.329C282.64 555.474 282.671 555.629 282.67 555.785V555.785Z" fill="#CCCCCC"/>
<g id="maintenance_hand">
<path id="Vector_28" d="M220.555 171.576C221.418 173.99 221.298 176.646 220.221 178.972C219.144 181.299 217.195 183.108 214.796 184.011C214.265 184.209 213.718 184.36 213.161 184.462L207.614 218.421L194.604 206.409L201.866 176.002C201.597 173.44 202.347 170.875 203.955 168.861C205.562 166.848 207.897 165.548 210.455 165.243C212.608 164.996 214.78 165.489 216.615 166.639C218.45 167.79 219.84 169.531 220.555 171.576L220.555 171.576Z" fill="#FFB6B6"/>
<path id="Vector_29" d="M124.54 248.524C124.54 248.524 134.638 235.183 171.279 235.548L192.077 227.992L196.83 184.422L213.466 188.383L211.089 242.251L175.441 262.848L128.702 272.354L124.54 248.524Z" fill="#3F3D56"/>
</g>
<path id="ab6171fa-7d69-4734-b81c-8dff60f9761b" d="M119.175 220.73C131.186 220.73 140.923 210.994 140.923 198.983C140.923 186.972 131.186 177.235 119.175 177.235C107.165 177.235 97.4279 186.972 97.4279 198.983C97.4279 210.994 107.165 220.73 119.175 220.73Z" fill="#FFB6B6"/>
<path id="Vector_30" d="M82.3673 363.878C82.3287 363.878 82.2903 363.873 82.2532 363.862C81.8517 363.75 81.5345 363.662 82.9835 351.133L84.5473 341.229L83.0206 332.485L80.4526 329.917L84.5799 325.79L88.0433 315.952L82.0505 307.071L75.175 270.755C73.9929 264.488 74.9115 258.007 77.7881 252.316C80.6648 246.624 85.3389 242.041 91.0856 239.277L99.0433 236.952L101.939 231.642C102.752 230.151 103.949 228.904 105.406 228.032C106.863 227.159 108.527 226.692 110.225 226.68L124.798 226.571C126.268 226.56 127.721 226.889 129.043 227.534C130.364 228.178 131.518 229.12 132.415 230.286L137.499 236.895L158.581 244.056L155.086 319.378C155.641 319.842 156.094 320.417 156.415 321.066C156.737 321.715 156.921 322.423 156.954 323.146C156.988 323.87 156.871 324.592 156.612 325.268C156.352 325.944 155.955 326.559 155.445 327.073C155.226 327.294 155.052 327.474 154.944 327.593C154.589 328.098 155.256 331.868 156.079 335.068L157.135 339.97C156.796 340.212 156.511 340.522 156.298 340.88C156.085 341.238 155.948 341.636 155.897 342.049C155.846 342.462 155.88 342.882 155.999 343.281C156.118 343.68 156.318 344.05 156.587 344.368L157.934 345.959C158.2 347.953 157.664 349.972 156.445 351.572C155.225 353.172 153.42 354.222 151.426 354.494C132.159 357.116 82.468 363.878 82.3673 363.878Z" fill="#3F3D56"/>
<path id="Vector_31" d="M113.612 219.665C113.519 219.461 113.426 219.256 113.334 219.05C113.37 219.051 113.405 219.056 113.44 219.057L113.612 219.665Z" fill="#2F2E41"/>
<path id="Vector_32" d="M96.8231 178.224C97.8556 177.25 99.1978 176.67 100.615 176.585C102.021 176.63 103.447 177.9 103.156 179.277C105.739 174.703 109.85 171.186 114.769 169.342C119.687 167.497 125.097 167.444 130.051 169.192C133.546 170.425 136.973 172.892 137.776 176.51C137.854 177.46 138.138 178.382 138.607 179.212C139.013 179.656 139.54 179.971 140.123 180.119C140.707 180.266 141.32 180.24 141.889 180.044L141.923 180.033C142.118 179.967 142.328 179.96 142.526 180.015C142.725 180.069 142.902 180.181 143.036 180.338C143.17 180.494 143.254 180.687 143.277 180.891C143.3 181.095 143.261 181.302 143.165 181.484L142.176 183.328C143.423 183.606 144.718 183.579 145.952 183.248C146.157 183.194 146.373 183.205 146.572 183.279C146.77 183.354 146.941 183.487 147.06 183.662C147.18 183.837 147.242 184.045 147.239 184.257C147.235 184.469 147.167 184.674 147.042 184.846C145.398 187.094 143.253 188.928 140.776 190.201C138.299 191.475 135.558 192.152 132.773 192.18C128.822 192.156 124.83 190.794 120.984 191.703C119.496 192.054 118.106 192.734 116.916 193.693C115.725 194.652 114.764 195.865 114.104 197.244C113.443 198.623 113.1 200.132 113.099 201.66C113.097 203.189 113.438 204.699 114.097 206.078C112.915 204.786 110.631 205.092 109.423 206.359C108.866 207.037 108.455 207.822 108.214 208.666C107.974 209.51 107.909 210.394 108.023 211.264C108.346 213.928 109.137 216.514 110.36 218.902C105.687 218.758 101.171 217.184 97.4217 214.392C93.6724 211.599 90.8705 207.723 89.3943 203.288C87.9182 198.852 87.8391 194.07 89.1676 189.588C90.4961 185.106 93.1682 181.139 96.8231 178.224L96.8231 178.224Z" fill="#2F2E41"/>
<path id="Vector_33" d="M90.8395 395.068C88.7603 393.569 87.3537 391.312 86.923 388.785C86.4923 386.258 87.0721 383.663 88.5372 381.559C88.8622 381.095 89.2277 380.661 89.6293 380.261L74.954 349.138L92.4809 351.662L103.73 380.83C105.403 382.789 106.239 385.328 106.055 387.898C105.872 390.467 104.684 392.862 102.75 394.563C101.116 395.986 99.0476 396.811 96.8833 396.903C94.7189 396.995 92.5877 396.348 90.8396 395.068H90.8395Z" fill="#FFB6B6"/>
<path id="Vector_34" d="M86.3954 378.074L63.0433 325.591L62.8094 284.139L70.1705 261.749C71.1692 258.711 72.7667 255.904 74.8686 253.494C76.9705 251.085 79.5341 249.121 82.408 247.718C85.2819 246.316 88.4077 245.505 91.6007 245.331C94.7937 245.158 97.9891 245.626 100.998 246.709L101.16 246.767L101.228 246.925C101.5 247.56 107.674 262.832 89.3609 294.248L85.6754 315.744L98.6075 365.018L86.3954 378.074Z" fill="#3F3D56"/>
</g>
<defs>
<clipPath id="clip0_1_2">
<rect width="897.318" height="556.975" fill="white"/>
</clipPath>
</defs>
</svg>
